<?xml version="1.0" standalone="no"?>
<!DOCTYPE svg PUBLIC "-//W3C//DTD SVG 20010904//EN"
 "http://www.w3.org/TR/2001/REC-SVG-20010904/DTD/svg10.dtd">
<svg version="1.0" xmlns="http://www.w3.org/2000/svg"
 width="842.000000pt" height="1280.000000pt" viewBox="0 0 842.000000 1280.000000"
 preserveAspectRatio="xMidYMid meet">
<metadata>
Created by potrace 1.15, written by Peter Selinger 2001-2017
</metadata>
<g transform="translate(0.000000,1280.000000) scale(0.100000,-0.100000)"
fill="#000000" stroke="none">
<path name="Jack Troncos" d="M8275 12786 c-16 -7 -59 -39 -95 -71 -36 -32 -66 -58 -67 -59 -1 -1
-7 -47 -12 -104 l-11 -102 -65 -86 c-102 -135 -186 -303 -224 -449 -9 -33 -20
-45 -62 -70 -111 -65 -200 -176 -397 -495 -39 -63 -99 -149 -134 -190 -42 -50
-62 -81 -60 -96 2 -12 -4 -39 -12 -59 -9 -21 -16 -46 -16 -56 0 -11 -7 -19
-15 -19 -8 0 -26 -5 -40 -12 -19 -9 -25 -19 -25 -45 0 -18 -7 -50 -15 -70 -8
-19 -15 -47 -15 -60 0 -18 -21 -44 -75 -95 -102 -95 -186 -204 -362 -468 -188
-281 -232 -336 -416 -505 -165 -153 -224 -226 -322 -400 -38 -66 -104 -178
-148 -250 -44 -71 -129 -218 -190 -325 -223 -395 -322 -537 -486 -699 l-96
-94 -11 114 c-13 128 -46 238 -100 338 -29 53 -34 70 -29 101 8 49 -9 141 -37
199 -14 28 -61 83 -121 141 -97 93 -148 155 -161 195 -5 18 2 22 57 37 35 9
107 33 161 54 86 33 99 41 115 73 45 89 63 198 63 374 -1 116 1 128 16 123
104 -32 209 -50 302 -50 93 0 111 2 162 26 46 21 60 34 73 65 25 58 52 173 80
337 38 221 59 272 222 559 46 82 98 179 115 215 34 76 78 222 78 259 l0 24
-46 -33 c-60 -43 -149 -138 -197 -211 -74 -111 -147 -283 -251 -592 -117 -350
-145 -425 -154 -425 -4 0 -25 7 -48 15 -23 7 -95 21 -160 30 -131 18 -229 41
-242 59 -5 6 -28 65 -52 130 -89 251 -142 351 -232 437 -85 82 -205 129 -328
129 -62 0 -67 -2 -83 -29 -12 -21 -34 -36 -75 -51 -112 -40 -133 -54 -210
-134 -74 -77 -136 -164 -263 -368 -30 -48 -60 -90 -69 -93 -8 -3 -77 -10 -155
-16 -168 -11 -271 -27 -307 -45 -37 -19 -36 -19 -49 29 -24 90 -40 222 -54
472 -9 143 -22 303 -30 355 -41 273 -119 420 -222 420 -29 0 -33 -4 -39 -35
-10 -55 12 -147 71 -290 29 -71 57 -152 64 -180 21 -97 31 -273 31 -581 l0
-311 24 -22 c72 -68 234 -79 514 -35 90 14 166 23 168 21 2 -2 6 -91 10 -198
8 -302 36 -390 148 -465 48 -32 56 -34 133 -34 92 0 131 -13 139 -46 11 -43 1
-56 -65 -79 -128 -47 -213 -127 -284 -270 -19 -38 -65 -155 -102 -260 -68
-191 -116 -299 -152 -344 l-20 -25 -49 29 c-95 55 -184 159 -350 412 -87 131
-214 333 -282 448 -69 116 -194 323 -277 460 -283 465 -432 725 -828 1445
-357 650 -393 714 -408 719 -7 2 -25 -11 -40 -29 -15 -18 -32 -29 -38 -26 -17
11 -13 63 9 106 35 69 24 102 -91 265 -193 272 -345 534 -445 761 l-57 132
-50 -15 c-43 -13 -254 -106 -265 -118 -3 -2 11 -17 29 -32 74 -60 225 -213
302 -307 164 -197 301 -414 451 -714 81 -163 259 -562 280 -629 5 -17 15 -23
35 -23 16 0 40 -9 54 -20 28 -22 62 -106 46 -115 -14 -9 -50 4 -87 32 -39 30
-62 24 -62 -15 0 -38 29 -64 120 -105 41 -19 83 -43 92 -54 9 -10 33 -66 53
-123 70 -204 166 -373 394 -694 152 -214 209 -304 406 -651 81 -143 169 -294
195 -335 26 -41 74 -129 108 -195 34 -66 81 -143 105 -172 25 -28 64 -87 87
-130 115 -212 194 -328 275 -408 106 -104 229 -165 377 -186 l86 -13 54 37
c53 37 100 47 114 25 11 -17 5 -112 -12 -198 -26 -129 -61 -218 -170 -434
-146 -288 -180 -381 -209 -577 -5 -33 -9 -37 -44 -43 -59 -9 -97 -48 -151
-157 -78 -154 -107 -181 -277 -250 -141 -57 -191 -94 -279 -206 -42 -54 -154
-177 -249 -273 -325 -331 -474 -529 -595 -797 l-51 -111 26 -37 c32 -49 32
-77 -4 -117 -52 -60 -140 -199 -200 -317 -72 -143 -137 -303 -247 -609 -100
-277 -185 -495 -225 -574 -33 -65 -35 -96 -14 -180 l16 -60 -64 -96 c-77 -118
-143 -230 -272 -467 -243 -449 -379 -638 -557 -782 -69 -56 -70 -57 -44 -64
37 -10 53 -25 91 -85 31 -48 60 -74 83 -74 4 0 32 44 62 98 116 213 230 348
342 407 l57 30 -1 65 c-2 77 10 115 68 232 46 91 54 140 30 173 -12 17 -15 14
-25 -35 -14 -66 -25 -80 -63 -80 l-30 0 22 34 c11 19 38 78 60 130 42 103 69
148 109 183 38 33 51 29 51 -14 0 -35 14 -73 23 -63 2 3 21 37 42 75 21 39 69
123 108 188 74 124 94 139 111 82 18 -61 26 -75 44 -75 17 0 20 14 31 127 24
263 89 485 268 917 159 382 219 556 267 768 24 106 25 109 112 225 345 466
730 881 1184 1279 109 95 231 173 293 188 19 4 27 13 27 28 0 34 36 82 99 131
75 59 93 89 126 207 15 52 36 111 47 132 20 36 81 78 94 66 10 -11 -34 -131
-85 -230 -54 -106 -121 -202 -280 -403 l-111 -140 0 -94 0 -94 -62 -95 c-34
-53 -71 -125 -82 -162 -16 -50 -35 -82 -74 -126 -185 -206 -299 -407 -507
-899 -122 -287 -195 -447 -256 -556 -52 -95 -58 -125 -34 -182 22 -53 19 -86
-15 -159 -75 -166 -148 -418 -250 -858 -104 -449 -175 -691 -250 -858 -17 -35
-30 -71 -30 -78 0 -20 22 -22 63 -6 30 11 40 12 52 2 23 -19 18 -43 -20 -87
-40 -47 -43 -59 -15 -68 27 -9 46 8 70 62 17 39 21 43 40 33 11 -6 20 -14 19
-18 0 -4 -24 -59 -53 -122 l-52 -115 -69 -3 c-50 -2 -72 -8 -82 -20 -61 -77
-130 -197 -251 -437 -158 -314 -217 -410 -312 -505 -59 -59 -65 -69 -66 -107
-1 -34 -9 -51 -37 -83 -34 -37 -41 -53 -49 -105 -2 -12 -25 -33 -58 -52 -150
-86 -150 -87 -26 -136 52 -20 99 -37 104 -37 6 0 21 15 33 33 13 17 51 66 85
107 120 146 184 273 184 365 0 30 3 33 41 38 50 7 68 23 121 108 28 45 54 75
80 89 21 12 38 28 38 37 0 8 16 63 35 120 35 105 91 223 222 469 73 138 133
270 154 342 l12 42 53 0 c29 0 64 4 77 9 32 12 40 45 17 66 -28 26 -60 101
-60 141 0 20 18 109 40 198 22 88 69 323 105 521 99 543 140 696 241 901 38
79 72 131 114 177 52 56 64 77 91 158 61 183 158 357 285 511 l59 73 6 -175
c6 -178 19 -251 59 -330 9 -19 21 -71 24 -115 35 -398 163 -724 426 -1078 l77
-104 62 -12 c43 -8 73 -22 103 -46 115 -93 162 -125 194 -131 60 -11 78 0 117
74 44 83 64 102 113 107 87 8 113 24 189 125 320 423 501 821 571 1255 19 119
26 464 11 603 l-7 72 39 0 38 0 -44 88 c-77 155 -169 478 -161 571 l3 36 81
-81 c160 -160 272 -365 459 -839 113 -285 182 -435 265 -575 60 -100 84 -175
75 -229 -8 -48 -40 -101 -61 -101 -9 0 -49 33 -88 73 -60 60 -82 93 -134 197
-62 123 -183 428 -249 627 -38 114 -67 153 -112 153 l-30 0 59 -123 c32 -67
88 -205 125 -307 146 -408 230 -596 314 -707 l40 -52 20 -213 c44 -452 78
-999 83 -1348 l3 -195 -47 -70 c-26 -38 -50 -87 -53 -107 -7 -38 -7 -38 27
-38 39 0 64 22 97 87 28 56 91 98 91 61 0 -31 126 -268 225 -423 142 -223 206
-346 250 -479 l37 -108 106 -107 c160 -160 268 -313 337 -479 l36 -87 92 4
c115 4 127 10 127 62 0 73 -35 123 -177 246 -62 55 -74 70 -92 125 -16 47 -50
102 -137 218 -118 159 -183 275 -204 368 -8 35 -19 56 -34 64 -11 6 -53 42
-93 81 -65 62 -73 75 -84 125 -15 72 -37 122 -114 262 -63 113 -64 116 -54
160 18 76 4 211 -40 380 -45 175 -62 290 -91 636 -22 264 -36 359 -81 539 -40
163 -46 257 -24 394 16 102 16 114 1 184 -21 95 -64 182 -161 332 -99 151
-139 237 -265 560 -158 408 -280 636 -394 732 -24 21 -35 42 -44 83 -16 71
-58 135 -138 209 l-64 60 0 58 c0 119 -33 199 -160 388 -101 152 -151 248
-175 340 -17 67 -20 155 -5 155 20 0 92 -75 115 -121 13 -26 41 -102 61 -170
51 -176 68 -211 110 -234 38 -20 116 -100 174 -178 26 -34 45 -50 75 -58 60
-16 164 -74 218 -121 27 -23 97 -100 155 -172 58 -72 191 -216 295 -321 229
-229 267 -276 460 -565 147 -220 254 -366 295 -404 12 -10 24 -32 27 -50 21
-104 67 -212 190 -445 127 -239 153 -309 170 -448 12 -108 14 -114 53 -163 28
-35 60 -99 101 -203 113 -289 116 -305 76 -470 -30 -127 -28 -157 16 -190 14
-10 45 -21 69 -24 l43 -6 -30 44 c-44 63 -49 101 -16 139 14 17 32 30 40 28 9
-2 39 -58 69 -127 29 -68 108 -228 176 -355 124 -233 189 -364 229 -455 20
-47 20 -51 5 -67 -18 -18 -14 -48 12 -76 21 -24 32 -22 32 5 0 13 6 31 13 41
16 21 24 11 297 -348 l174 -228 25 29 c14 17 56 51 92 76 59 41 99 91 99 124
0 5 -33 19 -72 32 -65 20 -80 30 -137 89 -97 102 -241 300 -342 472 -311 528
-376 649 -398 742 -13 56 -14 148 -1 202 10 47 6 56 -135 295 -119 202 -168
299 -244 483 -32 79 -106 247 -164 373 -57 127 -125 282 -150 345 -46 117
-127 363 -127 385 0 21 -224 325 -384 520 -311 380 -684 732 -983 930 -29 18
-43 35 -43 49 0 12 -12 45 -26 74 -20 40 -46 67 -119 124 l-93 73 -6 65 c-16
152 -58 277 -181 540 -46 96 -92 205 -103 241 -31 99 -46 221 -38 309 6 71 22
140 32 140 3 0 22 -11 42 -25 108 -71 270 -90 387 -45 134 51 219 130 325 301
35 57 114 178 174 269 160 240 418 676 459 775 20 47 43 120 52 162 9 42 19
81 22 87 4 6 80 90 169 186 412 445 698 801 916 1137 56 85 73 104 120 131 88
49 141 127 123 182 -7 22 -25 27 -25 7 0 -18 -42 -57 -61 -57 -8 0 -20 5 -27
12 -8 8 3 27 47 77 85 97 162 204 355 495 169 255 265 385 351 476 34 37 44
56 54 105 18 93 69 189 175 324 118 151 141 189 162 271 18 73 15 167 -7 181
-21 13 -89 10 -124 -5z m-7915 -175 c0 -27 -15 -34 -40 -21 -17 9 -19 14 -9
26 17 21 49 18 49 -5z m91 -128 c40 -24 37 -43 -6 -43 -37 0 -52 17 -41 45 7
19 11 19 47 -2z m7639 -218 c0 -27 -24 -49 -45 -41 -20 7 -19 42 3 64 21 23
42 11 42 -23z m-125 -189 c16 -12 17 -16 6 -30 -15 -18 -56 -22 -66 -6 -8 13
13 50 28 50 7 0 22 -6 32 -14z m-180 -297 c4 -5 -12 -33 -35 -62 -61 -77 -123
-169 -270 -402 -72 -115 -163 -251 -201 -302 -75 -100 -169 -206 -176 -200 -7
8 117 228 202 357 44 69 142 211 216 315 75 105 153 216 174 248 28 42 44 57
61 57 12 0 26 -5 29 -11z m-6245 -1164 c18 -9 40 -35 55 -64 13 -27 96 -168
183 -313 88 -145 184 -310 215 -368 52 -99 135 -284 152 -340 8 -27 -168 202
-277 360 -139 202 -267 437 -343 630 -20 52 -39 98 -42 103 -7 12 27 8 57 -8z
m5518 -13 c2 -16 -14 -41 -56 -85 -32 -34 -108 -127 -167 -207 -134 -179 -210
-268 -297 -345 -54 -48 -71 -70 -84 -110 -13 -41 -35 -68 -120 -151 -81 -79
-111 -116 -139 -172 -39 -76 -117 -157 -187 -193 -49 -25 -49 -25 72 126 53
66 196 248 317 405 332 427 621 766 647 757 6 -2 12 -13 14 -25z m-2694 -86
c80 -34 142 -103 160 -178 5 -24 2 -28 -30 -38 -52 -17 -141 -7 -200 23 -74
37 -164 143 -164 191 0 10 14 17 38 21 20 4 41 8 46 9 20 5 113 -13 150 -28z
m-293 -66 c23 -13 49 -61 49 -93 0 -20 -12 -29 -67 -55 -84 -38 -139 -48 -187
-32 -31 10 -36 15 -30 33 11 37 78 110 124 134 47 25 80 29 111 13z m289 -216
c83 -28 85 -30 82 -59 -2 -16 -18 -59 -35 -95 l-32 -65 -89 -3 c-68 -2 -106 2
-157 18 -73 22 -154 78 -178 123 -13 25 -13 29 10 53 47 52 93 65 209 61 84
-3 122 -9 190 -33z m-541 -14 c15 -46 108 -137 177 -176 87 -49 202 -77 283
-69 149 14 231 86 277 243 6 21 45 5 76 -30 20 -23 33 -57 49 -127 12 -53 25
-103 30 -112 7 -14 -2 -17 -64 -23 -261 -24 -391 -123 -413 -314 l-7 -62 27 0
c48 0 86 88 88 205 1 50 5 66 17 69 9 3 97 10 196 16 352 22 583 -15 687 -111
l43 -40 -255 5 c-261 4 -390 21 -488 62 -42 17 -50 12 -29 -19 18 -27 81 -47
150 -47 24 0 58 -5 74 -11 39 -13 43 -33 43 -192 0 -129 -26 -258 -59 -297
-20 -24 -177 -47 -421 -62 -254 -16 -478 4 -642 58 -44 14 -48 18 -62 67 -35
120 -51 489 -22 500 7 3 54 8 104 12 51 4 100 13 109 20 15 12 12 14 -31 20
-64 10 -205 0 -386 -26 -148 -21 -383 -30 -433 -16 -24 6 -26 10 -17 28 23 43
69 59 166 59 50 0 135 7 190 15 126 19 391 45 462 45 51 0 58 -3 126 -58 l71
-57 0 -65 c0 -64 37 -190 56 -190 14 0 22 69 16 140 -6 70 -40 168 -77 220
l-21 30 -150 0 -149 0 4 23 c3 12 10 46 15 74 23 116 100 219 168 222 6 1 16
-13 22 -29z m2111 -1005 l28 -15 -33 -89 c-72 -192 -155 -342 -259 -464 -53
-63 -56 -69 -56 -121 0 -47 -4 -58 -23 -71 -43 -28 -127 -142 -233 -317 -58
-95 -124 -197 -146 -226 -44 -57 -120 -125 -179 -160 -38 -23 -149 -65 -149
-56 0 10 44 91 70 129 15 22 74 92 130 155 59 66 151 187 216 285 62 94 140
200 173 236 42 46 68 86 84 130 37 97 104 226 216 413 56 93 101 173 101 178
0 13 28 10 60 -7z m-3544 -40 c9 -15 26 -25 39 -25 20 0 34 -22 98 -152 42
-84 139 -254 217 -378 78 -124 162 -265 187 -314 48 -95 74 -125 308 -343 60
-56 107 -104 105 -107 -10 -9 -118 17 -168 42 -112 54 -240 203 -357 412 -29
52 -119 213 -200 358 -136 243 -244 455 -260 510 -9 30 10 28 31 -3z m1871
-119 c67 -18 133 -55 133 -76 0 -9 -12 -27 -26 -41 -23 -21 -34 -24 -107 -24
-45 1 -124 5 -174 9 -89 9 -93 10 -93 33 0 39 29 83 63 98 41 18 138 19 204 1z
m150 -210 c160 -43 253 -134 298 -290 25 -87 16 -271 -18 -383 -29 -92 -84
-234 -131 -335 l-31 -66 -50 19 c-27 11 -84 47 -125 80 -117 95 -159 114 -257
114 l-83 0 -151 -78 c-83 -43 -157 -76 -165 -73 -21 8 -64 82 -92 160 -24 66
-26 83 -26 251 -1 139 3 197 17 255 34 145 44 166 97 205 181 133 508 197 717
141z m387 -706 c14 -17 32 -54 41 -82 18 -60 20 -200 4 -264 -11 -41 -14 -44
-45 -44 -42 0 -83 16 -111 42 -37 34 -31 106 19 254 24 68 48 124 54 124 7 0
24 -14 38 -30z m-1288 -35 c9 -13 29 -70 45 -125 l29 -102 -27 -21 c-15 -12
-34 -27 -42 -34 -19 -14 -80 -17 -100 -4 -30 19 -12 229 26 304 11 23 17 26
33 17 11 -6 27 -22 36 -35z m732 -230 c97 -29 187 -147 234 -305 11 -37 21
-112 25 -175 6 -135 -11 -228 -63 -334 l-37 -75 -21 27 c-12 14 -34 57 -51 94
-38 89 -62 126 -100 152 -141 96 -366 10 -391 -150 -8 -45 -30 -43 -74 7 -47
54 -60 118 -66 314 l-6 175 39 56 c79 116 152 181 235 210 68 23 205 25 276 4z
m-600 -676 c17 -16 38 -51 48 -77 9 -26 27 -73 39 -105 13 -31 19 -60 14 -63
-22 -13 -65 -106 -114 -243 -28 -81 -66 -169 -83 -194 -35 -50 -94 -92 -118
-83 -29 11 -57 96 -58 176 0 98 26 181 119 381 41 87 79 176 86 198 7 23 17
41 24 41 6 0 25 -14 43 -31z m526 -5 c61 -27 67 -38 88 -146 51 -279 76 -522
63 -623 -7 -57 -7 -57 -58 -80 -74 -34 -209 -50 -332 -39 l-99 9 -23 65 c-33
96 -31 204 7 350 47 177 70 290 70 347 0 45 4 54 32 78 73 62 168 76 252 39z
m442 -71 c13 -14 33 -58 45 -97 11 -39 38 -125 60 -191 76 -224 81 -245 82
-345 1 -79 -2 -104 -22 -147 -25 -57 -35 -62 -67 -35 -34 27 -50 60 -84 165
-17 53 -65 166 -106 249 -68 140 -74 158 -74 215 0 72 9 101 53 165 39 58 73
64 113 21z m-1256 -700 c43 -55 13 -154 -58 -196 -32 -19 -154 -28 -169 -13
-4 4 -7 31 -7 60 0 40 6 63 24 90 55 83 167 113 210 59z m364 -56 c70 -113 14
-300 -145 -484 -32 -36 -77 -81 -100 -100 l-44 -35 -24 54 c-38 82 -34 165 12
260 19 40 58 102 86 138 28 36 77 100 109 142 31 42 62 75 67 74 6 -1 23 -24
39 -49z m873 -258 c54 -109 74 -212 57 -298 -6 -28 -10 -31 -43 -31 -49 0
-131 40 -164 80 -36 42 -70 109 -112 221 -19 48 -41 102 -50 119 -21 41 -15
55 55 135 33 38 60 73 60 79 0 17 159 -230 197 -305z m332 211 c79 -40 127
-97 145 -173 5 -23 2 -30 -26 -47 -46 -28 -83 -25 -164 14 -97 46 -107 89 -37
170 18 22 33 43 33 48 0 12 6 10 49 -12z m-819 -92 c50 -26 49 -17 26 -155
-17 -107 -23 -119 -71 -161 -40 -35 -73 -35 -132 0 -33 20 -76 95 -88 156 l-7
32 124 0 c113 1 121 2 103 16 -16 12 -41 15 -120 12 -95 -3 -100 -2 -103 18
-4 29 42 82 81 93 60 17 140 13 187 -11z m-1035 -60 c14 -6 24 -15 23 -19 -2
-4 -125 -135 -274 -291 -428 -448 -566 -606 -807 -930 -72 -96 -157 -174 -222
-204 -74 -35 -87 -33 -79 14 16 91 86 234 167 342 39 52 174 220 391 484 228
278 468 482 691 588 68 32 74 33 110 16z m1245 -138 c0 -32 8 -66 21 -91 11
-23 19 -54 17 -72 -3 -29 -6 -32 -43 -35 -22 -2 -72 4 -111 14 l-70 17 7 52
c15 109 61 165 135 165 l44 0 0 -50z m903 -5 c66 -37 174 -141 279 -269 51
-61 194 -217 320 -346 125 -129 259 -275 299 -324 71 -89 239 -333 291 -424
26 -45 35 -101 22 -136 -15 -40 -153 111 -385 421 -188 252 -230 301 -459 543
-97 102 -214 228 -260 280 -87 97 -220 263 -220 274 0 16 72 3 113 -19z
m-1397 -26 c11 -9 14 -29 12 -78 -3 -63 -4 -65 -33 -72 -16 -4 -56 -16 -87
-28 -32 -12 -66 -21 -77 -21 -18 0 -18 3 -6 48 19 72 41 119 70 148 22 22 33
26 66 21 22 -3 47 -11 55 -18z m446 -208 c144 -37 222 -81 318 -179 72 -73 94
-104 138 -192 59 -120 90 -230 101 -361 l7 -92 -151 6 c-82 4 -242 14 -355 24
-138 11 -318 17 -550 17 -348 1 -349 1 -582 -40 l-37 -6 19 85 c81 370 281
638 538 722 153 50 397 56 554 16z m-849 -52 c33 -9 37 -13 32 -32 -19 -61
-88 -135 -154 -163 -31 -13 -32 -12 -42 14 -24 62 11 145 73 175 39 20 42 20
91 6z m1317 -16 c49 -34 89 -106 90 -161 l0 -34 -42 7 c-58 10 -89 27 -128 71
-30 35 -60 91 -60 113 0 24 107 27 140 4z m-1486 -226 c24 -18 17 -38 -80
-253 -84 -185 -113 -285 -117 -405 -3 -82 -5 -88 -45 -144 -23 -32 -67 -108
-98 -169 -60 -118 -131 -226 -164 -249 -13 -9 -39 -66 -69 -149 -59 -163 -81
-207 -128 -259 -43 -47 -94 -76 -153 -85 l-43 -7 8 39 c13 72 76 248 140 389
360 803 416 914 562 1116 59 84 150 189 162 189 4 0 15 -6 25 -13z m1161 -567
c155 -15 281 -37 382 -69 l88 -27 14 -49 c18 -67 21 -456 3 -539 -6 -33 -13
-60 -14 -61 -2 -1 -149 12 -328 28 -282 25 -374 29 -695 31 -377 1 -491 -7
-691 -48 l-62 -13 -6 71 c-21 260 -16 424 18 591 l12 60 69 7 c216 24 1022 35
1210 18z m-2665 -355 c10 -12 5 -37 -30 -138 -139 -401 -271 -750 -408 -1077
-37 -91 -79 -202 -92 -248 -27 -98 -61 -142 -108 -142 -40 0 -62 31 -62 86 0
30 15 72 55 154 31 62 92 219 136 349 154 449 285 750 412 945 57 86 74 99 97
71z m4764 -175 c45 -40 69 -91 112 -241 19 -68 49 -148 66 -179 91 -164 127
-240 242 -507 69 -161 137 -310 151 -333 75 -119 101 -206 79 -264 -11 -29
-78 -21 -112 14 -43 43 -146 285 -251 592 -121 354 -138 398 -230 584 -43 88
-86 184 -96 214 -10 30 -24 62 -31 71 -8 8 -14 30 -14 47 0 27 4 32 25 32 13
0 40 -14 59 -30z m-2175 -229 c153 -21 279 -42 458 -77 91 -17 92 -18 87 -43
-27 -122 -73 -289 -111 -404 l-45 -139 -236 8 c-480 16 -837 6 -1042 -31 -47
-8 -101 -18 -121 -21 l-35 -6 -27 69 c-50 128 -91 343 -99 522 -2 63 -9 58
142 96 180 46 281 55 590 50 217 -2 322 -8 439 -24z m-1934 -462 c7 -11 -43
-208 -159 -626 -147 -531 -165 -616 -176 -840 -9 -198 -21 -256 -63 -302 -26
-28 -76 -51 -112 -51 -22 0 -25 4 -25 34 0 54 25 169 68 317 22 75 83 309 136
520 52 211 115 455 140 541 41 139 127 395 141 418 6 9 43 2 50 -11z m2031
-274 c119 -15 192 -30 202 -39 9 -10 -103 -224 -171 -327 -33 -50 -97 -129
-140 -176 l-79 -83 -77 5 c-56 5 -113 0 -218 -18 -159 -27 -207 -24 -277 17
-85 50 -157 156 -223 326 -20 52 -51 132 -69 177 l-32 82 31 6 c119 20 300 38
492 49 116 7 453 -4 561 -19z m1284 -136 c0 -44 -3 -60 -12 -57 -17 6 -21 32
-13 84 9 62 25 45 25 -27z m43 -259 c91 -370 152 -839 145 -1110 l-3 -125 -44
0 c-35 0 -48 5 -63 25 -16 23 -19 49 -23 230 -2 113 -13 304 -25 425 -22 238
-38 700 -22 675 5 -8 21 -62 35 -120z m-4658 -160 c5 -22 0 -44 -17 -77 -22
-45 -92 -112 -104 -101 -18 18 79 208 106 208 5 0 11 -14 15 -30z m6182 -85
c11 -8 23 -26 25 -40 5 -22 2 -25 -22 -25 -31 0 -47 15 -50 45 -4 40 9 46 47
20z m-107 -30 c24 -12 33 -28 50 -85 52 -173 161 -398 281 -577 86 -128 136
-231 145 -298 l7 -50 -51 60 c-73 85 -156 229 -267 463 -100 211 -120 248
-192 374 -33 58 -42 82 -37 102 7 30 23 32 64 11z m-3130 -50 c0 -8 -6 -33
-12 -55 -11 -34 -17 -40 -40 -40 -15 0 -38 5 -52 11 -27 13 -61 73 -51 89 3 6
40 10 81 10 59 0 74 -3 74 -15z m-3396 -669 c-8 -29 -60 -76 -85 -76 -14 0
-17 4 -12 13 5 6 24 36 43 65 31 49 35 52 47 36 7 -10 10 -27 7 -38z m-104
-220 c0 -25 -7 -40 -26 -55 -32 -25 -47 -26 -64 -6 -18 22 -4 62 28 79 46 25
62 21 62 -18z m7232 -143 c32 -29 19 -73 -22 -73 -15 0 -62 68 -55 80 10 16
56 12 77 -7z m-1780 -138 c33 -55 70 -111 81 -124 l22 -24 -30 7 c-58 14 -125
95 -163 199 -48 128 -6 101 90 -58z m-5722 -64 c0 -30 -38 -71 -66 -71 -20 0
-44 29 -44 54 0 27 30 44 78 45 29 1 32 -2 32 -28z m7633 17 c9 -7 19 -25 23
-40 6 -26 4 -28 -28 -28 -44 0 -78 24 -78 56 0 21 5 24 33 24 18 0 41 -6 50
-12z m-6133 -76 c0 -9 -15 -40 -34 -67 -18 -28 -61 -117 -95 -198 -78 -188
-113 -249 -178 -314 -79 -81 -99 -70 -67 38 22 76 82 185 174 314 43 61 97
145 120 188 37 68 44 76 61 67 10 -6 19 -18 19 -28z m6249 -61 c12 -8 12 -12
2 -25 -24 -29 -60 -13 -47 19 6 17 24 19 45 6z m-1684 -361 c16 -13 41 -79 49
-127 5 -28 3 -33 -15 -33 -31 0 -72 50 -92 112 -9 30 -17 60 -17 66 0 12 54 0
75 -18z m-4987 -307 c3 -33 -19 -59 -43 -49 -20 7 -19 42 3 65 23 26 36 21 40
-16z m5168 -39 c9 -35 -1 -40 -42 -21 -35 17 -35 17 -17 41 22 29 49 20 59
-20z m-5266 -129 c17 -21 3 -54 -33 -76 -45 -27 -57 -24 -57 14 0 62 57 102
90 62z m-130 -210 c0 -31 -13 -45 -41 -45 -33 0 -35 9 -14 51 13 25 19 28 35
19 11 -6 20 -17 20 -25z m-110 -120 c16 -19 -12 -65 -40 -65 -28 0 -33 16 -15
50 17 33 36 38 55 15z m5918 -103 l3 -42 -40 0 c-46 0 -51 12 -27 59 10 19 22
27 38 26 20 -1 23 -8 26 -43z"/>
<path name="Gros bout de poitrine" d="M3700 9643 c-26 -10 -51 -37 -71 -75 l-19 -38 22 0 c16 0 29 11 43
38 14 26 28 38 45 40 23 3 31 -6 72 -85 61 -116 68 -151 34 -189 -24 -28 -26
-28 -53 -14 -15 9 -45 42 -66 73 -40 60 -56 73 -82 63 -14 -5 -14 -9 0 -37 22
-42 92 -117 126 -135 49 -25 91 -18 128 20 33 34 34 37 29 98 -8 95 -57 183
-126 225 -37 23 -54 26 -82 16z"/>
<path name="Plat de tranche"  d="M4599 9594 c-107 -33 -194 -155 -194 -274 0 -76 26 -140 56 -140 33
0 92 29 127 63 60 57 85 120 90 222 4 84 -7 146 -25 144 -5 0 -29 -7 -54 -15z
m15 -66 c50 -71 -49 -268 -135 -268 -19 0 -3 115 24 174 24 52 72 116 87 116
5 0 16 -10 24 -22z"/>
</g>
</svg>
